<?xml version="1.0" encoding="iso-8859-1"?>
<!-- Generator: Adobe Illustrator 19.0.0, SVG Export Plug-In . SVG Version: 6.00 Build 0)  -->
<svg xmlns="http://www.w3.org/2000/svg" xmlns:xlink="http://www.w3.org/1999/xlink" version="1.1" id="Layer_1" x="0px" y="0px" viewBox="0 0 512 512" style="enable-background:new 0 0 512 512;" xml:space="preserve">
<path style="fill:#36C8E3;" d="M210.706,448.289H43.934V345.832c18.363-18.363,28.657-28.657,47.02-47.02h119.751v149.478H210.706z"/>
<path style="fill:#2A8CBD;" d="M111.852,298.813H90.954c-18.362,18.363-28.657,28.657-47.02,47.02V448.29h20.898V345.833  C83.195,327.47,93.49,317.175,111.852,298.813z"/>
<rect x="145.042" y="93.905" style="fill:#B57E35;" width="31.347" height="98.053"/>
<rect x="322.163" y="93.905" style="fill:#DB9840;" width="93.581" height="49.025"/>
<rect x="322.163" y="93.905" style="fill:#B57E35;" width="20.898" height="49.025"/>
<rect x="7.837" y="78.235" style="fill:#FFD359;" width="496.327" height="31.347"/>
<rect x="7.837" y="78.235" style="fill:#DB9840;" width="20.898" height="31.347"/>
<rect x="110.738" y="178.364" style="fill:#FFD359;" width="99.976" height="269.928"/>
<g>
	<rect x="110.738" y="178.364" style="fill:#DB9840;" width="20.898" height="269.928"/>
	<rect x="322.163" y="223.807" style="fill:#DB9840;" width="93.581" height="19.832"/>
</g>
<rect x="353.489" y="201.54" style="fill:#FFD359;" width="31.194" height="22.264"/>
<rect x="145.042" y="332.152" style="fill:#36C8E3;" width="31.347" height="31.347"/>
<rect x="262.823" y="260.817" style="fill:#FF5948;" width="212.271" height="130.173"/>
<rect x="262.823" y="260.817" style="fill:#D44A3C;" width="20.898" height="130.173"/>
<circle style="fill:#DB9840;" cx="160.716" cy="93.905" r="30.199"/>
<rect x="256" y="242.291" style="fill:#FFD359;" width="225.917" height="23.396"/>
<rect x="256" y="242.291" style="fill:#DB9840;" width="20.898" height="23.396"/>
<rect x="256" y="386.111" style="fill:#FFD359;" width="225.917" height="23.396"/>
<rect x="256" y="386.111" style="fill:#DB9840;" width="20.898" height="23.396"/>
<path d="M415.754,150.783c4.329,0,7.837-3.508,7.837-7.836v-25.512h80.572c4.329,0,7.837-3.508,7.837-7.836V78.257  c0-4.327-3.508-7.836-7.837-7.836H365.714c-4.329,0-7.837,3.508-7.837,7.836s3.508,7.836,7.837,7.836h130.612v15.671H197.939  c0.532-2.529,0.815-5.148,0.815-7.833c0-2.686-0.284-5.308-0.817-7.839h119.012c4.329,0,7.837-3.508,7.837-7.836  s-3.508-7.836-7.837-7.836H190.582c-6.971-8.833-17.761-14.519-29.862-14.519s-22.892,5.686-29.862,14.519H7.837  C3.508,70.421,0,73.929,0,78.257v31.343c0,4.327,3.508,7.836,7.837,7.836h123.015c1.861,2.359,3.995,4.492,6.353,6.354v46.747  h-26.471c-4.329,0-7.837,3.508-7.837,7.836v40.758c0,4.327,3.508,7.836,7.837,7.836s7.837-3.508,7.837-7.836v-32.923h26.391  c0.027,0,0.053,0.004,0.08,0.004c0.027,0,0.053-0.004,0.08-0.004h31.185c0.027,0,0.053,0.004,0.08,0.004  c0.027,0,0.053-0.004,0.08-0.004h26.398v112.576c0,0.007-0.001,0.014-0.001,0.02v141.621h-84.297V298.904  c0-0.034,0.005-0.067,0.005-0.101c0-0.034-0.004-0.067-0.005-0.101v-33.243c0-4.327-3.508-7.836-7.837-7.836  s-7.837,3.508-7.837,7.836v25.509H90.958c-2.078,0-4.071,0.826-5.542,2.295l-47.01,47.003c-1.426,1.419-2.309,3.383-2.309,5.554  c0,0.027,0.004,0.053,0.004,0.08v21.589c0,0.027-0.004,0.053-0.004,0.08s0.004,0.053,0.004,0.08v21.59  c0,0.027-0.004,0.053-0.004,0.08c0,0.027,0.004,0.053,0.004,0.08v21.589c0,0.027-0.004,0.053-0.004,0.08s0.004,0.053,0.004,0.08  v29.277H7.837c-4.329,0-7.837,3.508-7.837,7.836c0,4.327,3.508,7.836,7.837,7.836h36.05c0.017,0,0.033,0.002,0.05,0.002h166.767  c0.017,0,0.033-0.002,0.05-0.002h293.409c4.329,0,7.837-3.508,7.837-7.836c0-4.327-3.508-7.836-7.837-7.836H218.541V178.37  c0-4.327-3.508-7.836-7.837-7.836h-26.479v-46.739c2.363-1.863,4.498-3.999,6.361-6.36h123.739v25.512  c0,4.327,3.508,7.836,7.837,7.836h38.959v42.93h-7.639c-4.329,0-7.837,3.508-7.837,7.836v14.427h-23.483  c-4.329,0-7.837,3.508-7.837,7.836v10.646H256c-4.329,0-7.837,3.508-7.837,7.836v23.393c0,3.983,2.975,7.265,6.823,7.763v104.876  c-3.848,0.497-6.823,3.779-6.823,7.763v23.393c0,4.327,3.508,7.836,7.837,7.836h97.484c4.329,0,7.837-3.508,7.837-7.836  c0-4.328-3.508-7.836-7.837-7.836h-89.647v-7.722h210.246v7.722h-72.842c-4.329,0-7.837,3.508-7.837,7.836  c0,4.328,3.508,7.836,7.837,7.836h80.679c4.329,0,7.837-3.508,7.837-7.836v-23.393c0-3.984-2.976-7.266-6.825-7.764V273.448  c3.849-0.497,6.825-3.779,6.825-7.764v-23.393c0-4.327-3.508-7.836-7.837-7.836h-58.328v-10.646c0-4.327-3.508-7.836-7.837-7.836  h-23.239v-14.427c0-4.327-3.508-7.836-7.837-7.836h-7.883v-42.93h38.958V150.783z M102.897,353.653v6.079H51.775v-6.079H102.897z   M102.897,381.485H51.775v-6.08h51.123V381.485z M51.775,397.155h51.123v6.079H51.775V397.155z M94.204,306.638h8.693v31.345H62.855  L94.204,306.638z M51.775,418.907h51.123v21.518H51.775V418.907z M160.719,71.573c12.33,0,22.361,10.03,22.361,22.358  s-10.032,22.359-22.361,22.359s-22.361-10.03-22.361-22.359S148.39,71.573,160.719,71.573z M15.673,101.764V86.092h107.828  c-0.533,2.531-0.817,5.151-0.817,7.839c0,2.684,0.283,5.304,0.815,7.833H15.673z M168.552,170.535h-15.673v-39.392  c2.532,0.533,5.153,0.817,7.841,0.817c2.684,0,5.304-0.283,7.833-0.815V170.535z M467.257,273.521v104.731H270.66V273.521H467.257z   M474.083,257.849H263.837v-7.722h210.246V257.849z M407.918,234.457H330v-2.812h77.917v2.812H407.918z M376.841,215.972H361.32  v-6.589h15.521V215.972z M330,117.435h77.917v17.677H330V117.435z"/>
<path d="M134.596,226.964h52.245c4.329,0,7.837-3.508,7.837-7.836c0-4.327-3.508-7.836-7.837-7.836h-52.245  c-4.329,0-7.837,3.508-7.837,7.836C126.76,223.456,130.268,226.964,134.596,226.964z"/>
<path d="M134.596,250.128h52.245c4.329,0,7.837-3.508,7.837-7.836c0-4.327-3.508-7.836-7.837-7.836h-52.245  c-4.329,0-7.837,3.508-7.837,7.836C126.76,246.62,130.268,250.128,134.596,250.128z"/>
<path d="M134.596,273.292h52.245c4.329,0,7.837-3.508,7.837-7.836s-3.508-7.836-7.837-7.836h-52.245  c-4.329,0-7.837,3.508-7.837,7.836S130.268,273.292,134.596,273.292z"/>
<path d="M145.045,324.305c-4.329,0-7.837,3.508-7.837,7.836v31.343c0,4.327,3.508,7.836,7.837,7.836h31.347  c4.329,0,7.837-3.508,7.837-7.836v-31.343c0-4.327-3.508-7.836-7.837-7.836H145.045z M168.556,355.647h-15.673v-15.671h15.673  V355.647z"/>
<path d="M291.094,375.405c4.329,0,7.837-3.508,7.837-7.836v-83.364c0-4.327-3.508-7.836-7.837-7.836s-7.837,3.508-7.837,7.836  v83.364C283.257,371.896,286.765,375.405,291.094,375.405z"/>
<path d="M322.288,375.405c4.329,0,7.837-3.508,7.837-7.836v-83.364c0-4.327-3.508-7.836-7.837-7.836  c-4.329,0-7.837,3.508-7.837,7.836v83.364C314.452,371.896,317.96,375.405,322.288,375.405z"/>
<path d="M353.484,375.405c4.329,0,7.837-3.508,7.837-7.836v-83.364c0-4.327-3.508-7.836-7.837-7.836  c-4.329,0-7.837,3.508-7.837,7.836v83.364C345.647,371.896,349.155,375.405,353.484,375.405z"/>
<path d="M384.678,375.405c4.329,0,7.837-3.508,7.837-7.836v-83.364c0-4.327-3.508-7.836-7.837-7.836  c-4.329,0-7.837,3.508-7.837,7.836v83.364C376.841,371.896,380.35,375.405,384.678,375.405z"/>
<path d="M415.874,375.405c4.329,0,7.837-3.508,7.837-7.836v-83.364c0-4.327-3.508-7.836-7.837-7.836  c-4.329,0-7.837,3.508-7.837,7.836v83.364C408.037,371.896,411.545,375.405,415.874,375.405z"/>
<path d="M447.068,375.405c4.329,0,7.837-3.508,7.837-7.836v-83.364c0-4.327-3.508-7.836-7.837-7.836s-7.837,3.508-7.837,7.836  v83.364C439.231,371.896,442.74,375.405,447.068,375.405z"/>
<circle cx="160.716" cy="93.926" r="7.836"/>
<g>
</g>
<g>
</g>
<g>
</g>
<g>
</g>
<g>
</g>
<g>
</g>
<g>
</g>
<g>
</g>
<g>
</g>
<g>
</g>
<g>
</g>
<g>
</g>
<g>
</g>
<g>
</g>
<g>
</g>
</svg>
